# xmcd
#
# Track frame offsets:
#	150
#	3565
#	58277
#	94241
#	134586
#	153842
#	189927
#	217556
#	262792
#	289569
#	297814
#	303223
#	337014
#
# Disc length: 4774 seconds
#
# Revision: 1
# Processed by: cddbd v1.5.2PL0 Copyright (c) Steve Scherf et al.
# Submitted via: audiograbber 1.83.01
#
DISCID=b112a40d
DTITLE=Grateful Dead - 77-05-25 The Mosque, Richmond VA
DYEAR=1900
DGENRE=
TTITLE0=Tuning
TTITLE1=Mississippi Half-Step
TTITLE2=Jack Straw
TTITLE3=They Love Each Other
TTITLE4=Mexicali Blues
TTITLE5=Peggy-O
TTITLE6=Cassidy
TTITLE7=Loser
TTITLE8=Lazy Lightning
TTITLE9=Supplication
TTITLE10=Tuning
TTITLE11=Brown Eyed Women
TTITLE12=Promised Land
EXTD=
EXTT0=
EXTT1=
EXTT2=
EXTT3=
EXTT4=
EXTT5=
EXTT6=
EXTT7=
EXTT8=
EXTT9=
EXTT10=
EXTT11=
EXTT12=
PLAYORDER=
